<svg xmlns="http://www.w3.org/2000/svg" width="580" height="337" viewBox="0 0 580 337"><polygon points="322,2 354,20.5 322,39 290,20.5" fill="#e9edf2" stroke="#b9c2cc" stroke-width="1"/><polygon points="354,20.5 386,39 354,57.5 322,39" fill="#dfe4ea" stroke="#b9c2cc" stroke-width="1"/><polygon points="386,39 418,57.5 386,76 354,57.5" fill="#e9edf2" stroke="#b9c2cc" stroke-width="1"/><polygon points="418,57.5 450,76 418,94.5 386,76" fill="#dfe4ea" stroke="#b9c2cc" stroke-width="1"/><polygon points="450,76 482,94.5 450,113 418,94.5" fill="#e9edf2" stroke="#b9c2cc" stroke-width="1"/><polygon points="482,94.5 514,113 482,131.5 450,113" fill="#dfe4ea" stroke="#b9c2cc" stroke-width="1"/><polygon points="514,113 546,131.5 514,150 482,131.5" fill="#e9edf2" stroke="#b9c2cc" stroke-width="1"/><polygon points="546,131.5 578,150 546,168.5 514,150" fill="#dfe4ea" stroke="#b9c2cc" stroke-width="1"/><polygon points="290,20.5 322,39 290,57.5 258,39" fill="#dfe4ea" stroke="#b9c2cc" stroke-width="1"/><polygon points="322,39 354,57.5 322,76 290,57.5" fill="#e9edf2" stroke="#b9c2cc" stroke-width="1"/><polygon points="354,57.5 386,76 354,94.5 322,76" fill="#dfe4ea" stroke="#b9c2cc" stroke-width="1"/><polygon points="386,76 418,94.5 386,113 354,94.5" fill="#e9edf2" stroke="#b9c2cc" stroke-width="1"/><polygon points="418,94.5 450,113 418,131.5 386,113" fill="#dfe4ea" stroke="#b9c2cc" stroke-width="1"/><polygon points="450,113 482,131.5 450,150 418,131.5" fill="#e9edf2" stroke="#b9c2cc" stroke-width="1"/><polygon points="482,131.5 514,150 482,168.5 450,150" fill="#dfe4ea" stroke="#b9c2cc" stroke-width="1"/><polygon points="514,150 546,168.5 514,187 482,168.5" fill="#e9edf2" stroke="#b9c2cc" stroke-width="1"/><polygon points="258,39 290,57.5 258,76 226,57.5" fill="#e9edf2" stroke="#b9c2cc" stroke-width="1"/><polygon points="290,57.5 322,76 290,94.5 258,76" fill="#dfe4ea" stroke="#b9c2cc" stroke-width="1"/><polygon points="322,76 354,94.5 322,113 290,94.5" fill="#e9edf2" stroke="#b9c2cc" stroke-width="1"/><polygon points="354,94.5 386,113 354,131.5 322,113" fill="#dfe4ea" stroke="#b9c2cc" stroke-width="1"/><polygon points="386,113 418,131.5 386,150 354,131.5" fill="#e9edf2" stroke="#b9c2cc" stroke-width="1"/><polygon points="418,131.5 450,150 418,168.5 386,150" fill="#dfe4ea" stroke="#b9c2cc" stroke-width="1"/><polygon points="450,150 482,168.5 450,187 418,168.5" fill="#e9edf2" stroke="#b9c2cc" stroke-width="1"/><polygon points="482,168.5 514,187 482,205.5 450,187" fill="#dfe4ea" stroke="#b9c2cc" stroke-width="1"/><polygon points="226,57.5 258,76 226,94.5 194,76" fill="#dfe4ea" stroke="#b9c2cc" stroke-width="1"/><polygon points="258,76 290,94.5 258,113 226,94.5" fill="#e9edf2" stroke="#b9c2cc" stroke-width="1"/><polygon points="290,94.5 322,113 290,131.5 258,113" fill="#dfe4ea" stroke="#b9c2cc" stroke-width="1"/><polygon points="322,113 354,131.5 322,150 290,131.5" fill="#e9edf2" stroke="#b9c2cc" stroke-width="1"/><polygon points="354,131.5 386,150 354,168.5 322,150" fill="#dfe4ea" stroke="#b9c2cc" stroke-width="1"/><polygon points="386,150 418,168.5 386,187 354,168.5" fill="#e9edf2" stroke="#b9c2cc" stroke-width="1"/><polygon points="418,168.5 450,187 418,205.5 386,187" fill="#dfe4ea" stroke="#b9c2cc" stroke-width="1"/><polygon points="450,187 482,205.5 450,224 418,205.5" fill="#e9edf2" stroke="#b9c2cc" stroke-width="1"/><polygon points="194,76 226,94.5 194,113 162,94.5" fill="#e9edf2" stroke="#b9c2cc" stroke-width="1"/><polygon points="226,94.5 258,113 226,131.5 194,113" fill="#dfe4ea" stroke="#b9c2cc" stroke-width="1"/><polygon points="258,113 290,131.5 258,150 226,131.5" fill="#e9edf2" stroke="#b9c2cc" stroke-width="1"/><polygon points="290,131.5 322,150 290,168.5 258,150" fill="#dfe4ea" stroke="#b9c2cc" stroke-width="1"/><polygon points="322,150 354,168.5 322,187 290,168.5" fill="#e9edf2" stroke="#b9c2cc" stroke-width="1"/><polygon points="354,168.5 386,187 354,205.5 322,187" fill="#dfe4ea" stroke="#b9c2cc" stroke-width="1"/><polygon points="386,187 418,205.5 386,224 354,205.5" fill="#e9edf2" stroke="#b9c2cc" stroke-width="1"/><polygon points="418,205.5 450,224 418,242.5 386,224" fill="#dfe4ea" stroke="#b9c2cc" stroke-width="1"/><polygon points="162,94.5 194,113 162,131.5 130,113" fill="#dfe4ea" stroke="#b9c2cc" stroke-width="1"/><polygon points="194,113 226,131.5 194,150 162,131.5" fill="#e9edf2" stroke="#b9c2cc" stroke-width="1"/><polygon points="226,131.5 258,150 226,168.5 194,150" fill="#dfe4ea" stroke="#b9c2cc" stroke-width="1"/><polygon points="258,150 290,168.5 258,187 226,168.5" fill="#e9edf2" stroke="#b9c2cc" stroke-width="1"/><polygon points="290,168.5 322,187 290,205.5 258,187" fill="#dfe4ea" stroke="#b9c2cc" stroke-width="1"/><polygon points="322,187 354,205.5 322,224 290,205.5" fill="#e9edf2" stroke="#b9c2cc" stroke-width="1"/><polygon points="354,205.5 386,224 354,242.5 322,224" fill="#dfe4ea" stroke="#b9c2cc" stroke-width="1"/><polygon points="386,224 418,242.5 386,261 354,242.5" fill="#e9edf2" stroke="#b9c2cc" stroke-width="1"/><polygon points="130,113 162,131.5 130,150 98,131.5" fill="#e9edf2" stroke="#b9c2cc" stroke-width="1"/><polygon points="162,131.5 194,150 162,168.5 130,150" fill="#dfe4ea" stroke="#b9c2cc" stroke-width="1"/><polygon points="194,150 226,168.5 194,187 162,168.5" fill="#e9edf2" stroke="#b9c2cc" stroke-width="1"/><polygon points="226,168.5 258,187 226,205.5 194,187" fill="#dfe4ea" stroke="#b9c2cc" stroke-width="1"/><polygon points="258,187 290,205.5 258,224 226,205.5" fill="#e9edf2" stroke="#b9c2cc" stroke-width="1"/><polygon points="290,205.5 322,224 290,242.5 258,224" fill="#dfe4ea" stroke="#b9c2cc" stroke-width="1"/><polygon points="322,224 354,242.5 322,261 290,242.5" fill="#e9edf2" stroke="#b9c2cc" stroke-width="1"/><polygon points="354,242.5 386,261 354,279.5 322,261" fill="#dfe4ea" stroke="#b9c2cc" stroke-width="1"/><polygon points="98,131.5 130,150 98,168.5 66,150" fill="#dfe4ea" stroke="#b9c2cc" stroke-width="1"/><polygon points="130,150 162,168.5 130,187 98,168.5" fill="#e9edf2" stroke="#b9c2cc" stroke-width="1"/><polygon points="162,168.5 194,187 162,205.5 130,187" fill="#dfe4ea" stroke="#b9c2cc" stroke-width="1"/><polygon points="194,187 226,205.5 194,224 162,205.5" fill="#e9edf2" stroke="#b9c2cc" stroke-width="1"/><polygon points="226,205.5 258,224 226,242.5 194,224" fill="#dfe4ea" stroke="#b9c2cc" stroke-width="1"/><polygon points="258,224 290,242.5 258,261 226,242.5" fill="#e9edf2" stroke="#b9c2cc" stroke-width="1"/><polygon points="290,242.5 322,261 290,279.5 258,261" fill="#dfe4ea" stroke="#b9c2cc" stroke-width="1"/><polygon points="322,261 354,279.5 322,298 290,279.5" fill="#e9edf2" stroke="#b9c2cc" stroke-width="1"/><polygon points="66,150 98,168.5 66,187 34,168.5" fill="#e9edf2" stroke="#b9c2cc" stroke-width="1"/><polygon points="98,168.5 130,187 98,205.5 66,187" fill="#dfe4ea" stroke="#b9c2cc" stroke-width="1"/><polygon points="130,187 162,205.5 130,224 98,205.5" fill="#e9edf2" stroke="#b9c2cc" stroke-width="1"/><polygon points="162,205.5 194,224 162,242.5 130,224" fill="#dfe4ea" stroke="#b9c2cc" stroke-width="1"/><polygon points="194,224 226,242.5 194,261 162,242.5" fill="#e9edf2" stroke="#b9c2cc" stroke-width="1"/><polygon points="226,242.5 258,261 226,279.5 194,261" fill="#dfe4ea" stroke="#b9c2cc" stroke-width="1"/><polygon points="258,261 290,279.5 258,298 226,279.5" fill="#e9edf2" stroke="#b9c2cc" stroke-width="1"/><polygon points="290,279.5 322,298 290,316.5 258,298" fill="#dfe4ea" stroke="#b9c2cc" stroke-width="1"/><polygon points="34,168.5 66,187 34,205.5 2,187" fill="#dfe4ea" stroke="#b9c2cc" stroke-width="1"/><polygon points="66,187 98,205.5 66,224 34,205.5" fill="#e9edf2" stroke="#b9c2cc" stroke-width="1"/><polygon points="98,205.5 130,224 98,242.5 66,224" fill="#dfe4ea" stroke="#b9c2cc" stroke-width="1"/><polygon points="130,224 162,242.5 130,261 98,242.5" fill="#e9edf2" stroke="#b9c2cc" stroke-width="1"/><polygon points="162,242.5 194,261 162,279.5 130,261" fill="#dfe4ea" stroke="#b9c2cc" stroke-width="1"/><polygon points="194,261 226,279.5 194,298 162,279.5" fill="#e9edf2" stroke="#b9c2cc" stroke-width="1"/><polygon points="226,279.5 258,298 226,316.5 194,298" fill="#dfe4ea" stroke="#b9c2cc" stroke-width="1"/><polygon points="258,298 290,316.5 258,335 226,316.5" fill="#e9edf2" stroke="#b9c2cc" stroke-width="1"/></svg>